<svg xmlns="http://www.w3.org/2000/svg" version="1.1" xmlns:xlink="http://www.w3.org/1999/xlink" xmlns:svgjs="http://svgjs.com/svgjs" width="1440" height="900" preserveAspectRatio="none" viewBox="0 0 1440 900"><g mask="url(&quot;#SvgjsMask1491&quot;)" fill="none"><rect width="1440" height="900" x="0" y="0" fill="url(#SvgjsLinearGradient1492)"></rect><path d="M1054 293L1354 593" stroke-width="6" stroke="url(#SvgjsLinearGradient1493)" stroke-linecap="round" class="BottomRight"></path><path d="M1293 861L727 295" stroke-width="6" stroke="url(#SvgjsLinearGradient1494)" stroke-linecap="round" class="TopLeft"></path><path d="M170 704L580 1114" stroke-width="10" stroke="url(#SvgjsLinearGradient1494)" stroke-linecap="round" class="TopLeft"></path><path d="M801 593L525 317" stroke-width="6" stroke="url(#SvgjsLinearGradient1494)" stroke-linecap="round" class="TopLeft"></path><path d="M1175 843L1807 1475" stroke-width="8" stroke="url(#SvgjsLinearGradient1493)" stroke-linecap="round" class="BottomRight"></path><path d="M891 281L1378 768" stroke-width="10" stroke="url(#SvgjsLinearGradient1494)" stroke-linecap="round" class="TopLeft"></path><path d="M1202 104L811 -287" stroke-width="6" stroke="url(#SvgjsLinearGradient1494)" stroke-linecap="round" class="TopLeft"></path><path d="M967 384L350 -233" stroke-width="6" stroke="url(#SvgjsLinearGradient1494)" stroke-linecap="round" class="TopLeft"></path><path d="M299 682L-82 301" stroke-width="6" stroke="url(#SvgjsLinearGradient1494)" stroke-linecap="round" class="TopLeft"></path><path d="M28 730L645 1347" stroke-width="10" stroke="url(#SvgjsLinearGradient1493)" stroke-linecap="round" class="BottomRight"></path><path d="M1395 20L769 -606" stroke-width="10" stroke="url(#SvgjsLinearGradient1493)" stroke-linecap="round" class="BottomRight"></path><path d="M33 637L315 919" stroke-width="10" stroke="url(#SvgjsLinearGradient1493)" stroke-linecap="round" class="BottomRight"></path><path d="M1110 153L482 -475" stroke-width="10" stroke="url(#SvgjsLinearGradient1494)" stroke-linecap="round" class="TopLeft"></path><path d="M316 304L987 975" stroke-width="10" stroke="url(#SvgjsLinearGradient1494)" stroke-linecap="round" class="TopLeft"></path><path d="M942 213L1611 882" stroke-width="6" stroke="url(#SvgjsLinearGradient1493)" stroke-linecap="round" class="BottomRight"></path><path d="M254 408L-395 -241" stroke-width="6" stroke="url(#SvgjsLinearGradient1493)" stroke-linecap="round" class="BottomRight"></path><path d="M904 47L286 -571" stroke-width="10" stroke="url(#SvgjsLinearGradient1494)" stroke-linecap="round" class="TopLeft"></path><path d="M434 316L30 -88" stroke-width="6" stroke="url(#SvgjsLinearGradient1494)" stroke-linecap="round" class="TopLeft"></path><path d="M1005 207L393 -405" stroke-width="8" stroke="url(#SvgjsLinearGradient1493)" stroke-linecap="round" class="BottomRight"></path><path d="M790 112L338 -340" stroke-width="6" stroke="url(#SvgjsLinearGradient1494)" stroke-linecap="round" class="TopLeft"></path><path d="M254 363L-305 -196" stroke-width="8" stroke="url(#SvgjsLinearGradient1493)" stroke-linecap="round" class="BottomRight"></path><path d="M784 593L267 76" stroke-width="6" stroke="url(#SvgjsLinearGradient1494)" stroke-linecap="round" class="TopLeft"></path><path d="M787 273L205 -309" stroke-width="10" stroke="url(#SvgjsLinearGradient1494)" stroke-linecap="round" class="TopLeft"></path><path d="M425 228L-61 -258" stroke-width="8" stroke="url(#SvgjsLinearGradient1494)" stroke-linecap="round" class="TopLeft"></path><path d="M401 736L-229 106" stroke-width="8" stroke="url(#SvgjsLinearGradient1494)" stroke-linecap="round" class="TopLeft"></path><path d="M1355 148L1730 523" stroke-width="10" stroke="url(#SvgjsLinearGradient1494)" stroke-linecap="round" class="TopLeft"></path><path d="M57 131L-218 -144" stroke-width="6" stroke="url(#SvgjsLinearGradient1494)" stroke-linecap="round" class="TopLeft"></path><path d="M209 254L778 823" stroke-width="8" stroke="url(#SvgjsLinearGradient1493)" stroke-linecap="round" class="BottomRight"></path><path d="M767 373L356 -38" stroke-width="10" stroke="url(#SvgjsLinearGradient1493)" stroke-linecap="round" class="BottomRight"></path><path d="M969 718L561 310" stroke-width="6" stroke="url(#SvgjsLinearGradient1493)" stroke-linecap="round" class="BottomRight"></path><path d="M351 77L631 357" stroke-width="10" stroke="url(#SvgjsLinearGradient1494)" stroke-linecap="round" class="TopLeft"></path><path d="M711 861L70 220" stroke-width="8" stroke="url(#SvgjsLinearGradient1493)" stroke-linecap="round" class="BottomRight"></path><path d="M250 206L-333 -377" stroke-width="10" stroke="url(#SvgjsLinearGradient1494)" stroke-linecap="round" class="TopLeft"></path><path d="M1115 696L1448 1029" stroke-width="10" stroke="url(#SvgjsLinearGradient1493)" stroke-linecap="round" class="BottomRight"></path><path d="M187 789L-54 548" stroke-width="8" stroke="url(#SvgjsLinearGradient1494)" stroke-linecap="round" class="TopLeft"></path><path d="M1080 778L566 264" stroke-width="6" stroke="url(#SvgjsLinearGradient1494)" stroke-linecap="round" class="TopLeft"></path><path d="M1098 569L693 164" stroke-width="10" stroke="url(#SvgjsLinearGradient1493)" stroke-linecap="round" class="BottomRight"></path><path d="M1262 214L1637 589" stroke-width="8" stroke="url(#SvgjsLinearGradient1493)" stroke-linecap="round" class="BottomRight"></path><path d="M746 606L1169 1029" stroke-width="10" stroke="url(#SvgjsLinearGradient1494)" stroke-linecap="round" class="TopLeft"></path><path d="M516 588L784 856" stroke-width="8" stroke="url(#SvgjsLinearGradient1493)" stroke-linecap="round" class="BottomRight"></path><path d="M694 781L441 528" stroke-width="6" stroke="url(#SvgjsLinearGradient1493)" stroke-linecap="round" class="BottomRight"></path><path d="M91 95L515 519" stroke-width="10" stroke="url(#SvgjsLinearGradient1494)" stroke-linecap="round" class="TopLeft"></path><path d="M913 643L399 129" stroke-width="10" stroke="url(#SvgjsLinearGradient1494)" stroke-linecap="round" class="TopLeft"></path></g><defs><mask id="SvgjsMask1491"><rect width="1440" height="900" fill="#ffffff"></rect></mask><linearGradient x1="9.37%" y1="-15%" x2="90.63%" y2="115%" gradientUnits="userSpaceOnUse" id="SvgjsLinearGradient1492"><stop stop-color="rgba(14, 42, 71, 1)" offset="0"></stop><stop stop-color="rgba(198, 106, 171, 1)" offset="0.82"></stop><stop stop-color="rgba(198, 106, 171, 1)" offset="1"></stop></linearGradient><linearGradient x1="0%" y1="0%" x2="100%" y2="100%" id="SvgjsLinearGradient1493"><stop stop-color="rgba(255, 255, 255, 0)" offset="0"></stop><stop stop-color="rgba(255, 255, 255, 1)" offset="1"></stop></linearGradient><linearGradient x1="100%" y1="100%" x2="0%" y2="0%" id="SvgjsLinearGradient1494"><stop stop-color="rgba(255, 255, 255, 0)" offset="0"></stop><stop stop-color="rgba(255, 255, 255, 1)" offset="1"></stop></linearGradient></defs></svg>